<?xml version="1.0" encoding="UTF-8"?>
<svg xmlns="http://www.w3.org/2000/svg" viewBox="0 0 512 508">
<path fill="#1a4234" d="M261.243 223.749C266.864 231.404 275.097 231.566 281.004 230.358 318.184 222.74 347.146 212.859 372.15 199.261 402.133 182.97 420.465 165.806 431.597 143.615 445.299 116.255 444.556 90.368 429.393 66.673 415.753 45.496 379.264 25.15 340.859 46.2L339.386 47.009 338.857 45.416C338.609 44.671 338.383 43.955 338.169 43.262 337.61 41.483 337.126 39.943 336.455 38.516 328.104 20.422 315.098 8.535 297.795 3.178 259.418-8.652 227.987 14.46 215.012 40.924 203.88 63.465 201.827 88.876 208.727 118.619 216.57 152.441 232.767 184.864 261.243 223.749M250.778 284.256C245.216 276.595 236.992 276.439 231.053 277.647 193.83 285.273 164.869 295.153 139.911 308.743 109.865 325.04 91.522 342.201 80.427 364.387 66.739 391.801 67.501 417.693 82.692 441.341 96.281 462.528 132.712 482.883 171.158 461.805L172.621 461.001 173.158 462.581C173.43 463.383 173.676 464.159 173.917 464.91 174.447 466.56 174.942 468.122 175.576 469.505 183.914 487.597 196.91 499.481 214.199 504.822 221.303 507.005 228.166 508 234.713 508 263.626 508 286.466 488.656 297.015 467.07 308.146 444.441 310.213 419.026 303.334 389.372 295.451 355.55 279.24 323.131 250.778 284.256M279.819 278.612C287.499 315.444 297.456 344.188 311.154 369.066 327.62 398.855 344.928 417.048 367.279 428.052 380.365 434.521 393.118 437.757 405.457 437.757 419.127 437.757 432.286 433.789 444.839 425.856 480.281 403.384 478.219 360.979 465.44 338.045L464.62 336.575 466.216 336.038C467.08 335.746 467.913 335.488 468.706 335.244 470.373 334.73 471.809 334.286 473.155 333.661 491.448 325.362 503.438 312.462 508.792 295.318 520.713 257.262 497.482 226.05 470.861 213.154 447.957 202.113 422.318 200.068 392.463 206.914 358.364 214.728 325.675 230.815 286.48 259.066 278.802 264.633 278.62 272.768 279.819 278.612M41.222 294.839C55.272 301.647 70.388 305.04 86.901 305.04 97.224 305.04 108.091 303.715 119.592 301.073 153.73 293.235 186.405 277.168 225.542 248.973 233.246 243.395 233.397 235.25 232.168 229.4 224.522 192.544 214.564 163.807 200.833 138.957 184.476 109.216 167.175 91.009 144.738 79.918 117.114 66.32 91.034 67.073 67.217 82.147 31.776 104.612 33.815 147.002 46.584 169.928L47.397 171.387 45.815 171.931C44.902 172.243 44.024 172.519 43.179 172.785 41.628 173.272 40.167 173.733 38.85 174.323 20.359 182.712 8.693 195.263 3.19 212.689-8.699 250.75 14.571 281.955 41.222 294.839"/>
</svg>