<?xml version="1.0" encoding="UTF-8" standalone="no"?>
<!-- Generator: Adobe Illustrator 11.0, SVG Export Plug-In  -->

<svg
   xmlns:dc="http://purl.org/dc/elements/1.1/"
   xmlns:cc="http://creativecommons.org/ns#"
   xmlns:rdf="http://www.w3.org/1999/02/22-rdf-syntax-ns#"
   xmlns:svg="http://www.w3.org/2000/svg"
   xmlns="http://www.w3.org/2000/svg"
   xmlns:sodipodi="http://sodipodi.sourceforge.net/DTD/sodipodi-0.dtd"
   xmlns:inkscape="http://www.inkscape.org/namespaces/inkscape"
   width="280.73001"
   height="166.15976"
   viewBox="-0.62 -0.437 280.73001 166.15976"
   xml:space="preserve"
   id="svg3072"
   version="1.1"
   inkscape:version="0.48.2 r9819"
   sodipodi:docname="Folkpartiet liberalerna Teillogo.svg"><metadata
   id="metadata3114"><rdf:RDF><cc:Work
       rdf:about=""><dc:format>image/svg+xml</dc:format><dc:type
         rdf:resource="http://purl.org/dc/dcmitype/StillImage" /></cc:Work></rdf:RDF></metadata><sodipodi:namedview
   pagecolor="#ffffff"
   bordercolor="#666666"
   borderopacity="1"
   objecttolerance="10"
   gridtolerance="10"
   guidetolerance="10"
   inkscape:pageopacity="0"
   inkscape:pageshadow="2"
   inkscape:window-width="797"
   inkscape:window-height="629"
   id="namedview3112"
   showgrid="false"
   fit-margin-top="0"
   fit-margin-left="0"
   fit-margin-right="0"
   fit-margin-bottom="0"
   inkscape:zoom="0.5399061"
   inkscape:cx="141.479"
   inkscape:cy="-3.9032526"
   inkscape:window-x="1920"
   inkscape:window-y="0"
   inkscape:window-maximized="0"
   inkscape:current-layer="g3076" />
	<defs
   id="defs3074">
	</defs>
	<g
   id="g3076"
   transform="translate(-178.021,-0.43699446)">
		
		
		
		
		
		
		
		
		
		
		
		<path
   d="m 242.627,8.387 c 3.495,-1.65 6.578,3.931 9.782,8.724 3.567,5.328 7.26,9.859 3.818,11.895 -7.369,4.38 -2.556,15.918 0.757,29.098 0.633,2.514 1.351,5.206 -5.86,4.944 -6.25,-0.244 -14.997,-0.638 -21.95,1.294 -7.58,2.11 -9.2,8.236 -4.836,13.536 3.806,4.625 2.258,6.876 -0.082,6.351 -14.678,-3.33 -29.044,-6.351 -40.688,-8.63 -4.099,-0.798 -6.167,-1.688 -6.167,-4.156 0,-2.101 2.704,-3.715 5.166,-4.84 2.409,-1.107 12.084,-5.216 16.399,-6.914 7.253,-2.861 7.425,-5.394 5.924,-8.574 -2.305,-4.868 -8.156,-11.735 -9.681,-16.716 -1.294,-4.24 1.405,-6.876 6.327,-5.929 4.531,0.872 15.131,4.784 20.044,6.313 7.971,2.467 11.491,-2.749 12.938,-7.804 1.805,-6.313 4.8,-17.035 8.109,-18.592 z"
   id="path3100"
   inkscape:connector-curvature="0"
   style="fill:#003399" />
		<path
   d="m 293.15,123.083 c -0.038,-0.337 -0.178,-1.811 -2.504,-2.561 -7.01,-2.261 -29.171,8.161 -41.251,8.152 -5.865,-0.009 -18.55,-4.343 -6.515,-23.095 0.443,-0.675 0.823,-1.21 1.06,-2.167 1.709,-7.702 -35.477,-11.229 -50.704,-13.696 -3.585,-0.591 -8.323,-1.529 -10.152,0.16 -2.453,2.261 0.828,4.756 2.554,6.266 3.135,2.739 14.767,12.964 16.388,14.512 1.656,1.566 3.274,2.964 3.135,4.203 -0.192,1.745 -3.072,3.621 -4.599,4.512 -1.639,0.957 -15.497,8.761 -17.828,10.524 -2.34,1.745 -3.698,3.574 -3.75,5.61 -0.019,2.814 1.864,4.446 3.886,5.056 6.409,1.932 24.035,2.495 25.351,5.778 1.304,3.273 -2.498,17.476 3.147,19.605 3.701,1.407 12.179,-4.287 20.373,-8.958 13.318,-7.598 28.962,-17.72 59.062,-30.496 1.475,-0.619 2.507,-1.942 2.347,-3.405 z"
   id="path3102"
   inkscape:connector-curvature="0"
   style="fill:#3399ff" />
		<path
   d="m 392.904,8.387 c -3.494,-1.65 -6.575,3.931 -9.784,8.724 -3.563,5.328 -7.26,9.859 -3.817,11.895 7.373,4.38 2.561,15.918 -0.755,29.098 -0.634,2.514 -1.347,5.206 5.858,4.944 6.252,-0.244 14.999,-0.638 21.95,1.294 7.579,2.11 9.202,8.236 4.84,13.536 -3.809,4.625 -2.256,6.876 0.08,6.351 14.676,-3.33 29.047,-6.351 40.688,-8.63 4.099,-0.798 6.167,-1.688 6.167,-4.156 0,-2.101 -2.706,-3.715 -5.169,-4.84 -2.405,-1.107 -12.082,-5.216 -16.396,-6.914 -7.256,-2.861 -7.425,-5.394 -5.924,-8.574 2.308,-4.868 8.156,-11.735 9.681,-16.716 1.294,-4.24 -1.407,-6.876 -6.327,-5.929 -4.53,0.872 -15.131,4.784 -20.042,6.313 -7.974,2.467 -11.491,-2.749 -12.94,-7.804 -1.806,-6.313 -4.799,-17.035 -8.11,-18.592 z"
   id="path3104"
   inkscape:connector-curvature="0"
   style="fill:#003399" />
		<path
   d="m 390.995,73.366 c -10.866,0.722 -15.13,0.253 -22.526,0.216 -2.364,-0.084 -4.334,-1.445 -4.146,-3.443 0.394,-4.155 4.212,-13.901 5.529,-18.911 1.482,-5.646 1.347,-8.32 -0.633,-9.39 -2.251,-1.21 -4.277,0.976 -5.478,2.646 -8.561,11.932 -27.306,29.126 -40.045,36.79 -1.121,0.676 -2.673,1.811 -5.919,1.811 -3.246,0 -4.824,-1.135 -5.95,-1.811 -12.739,-7.673 -31.476,-24.868 -40.039,-36.79 -1.196,-1.67 -3.222,-3.855 -5.476,-2.646 -1.979,1.069 -2.115,3.743 -0.633,9.39 1.315,5.01 5.138,14.756 5.53,18.911 0.19,1.998 -1.782,3.358 -4.146,3.443 -7.396,0.038 -11.663,0.506 -22.527,-0.216 -10.867,-0.722 -9.681,3.096 -7.251,5.328 2.423,2.242 22.427,13.283 23.386,18.714 1.091,6.182 -15.124,16.097 -7.474,20.177 6.637,3.546 32.17,-13.93 64.102,-13.939 0.15,0 0.3,0 0.448,0 l 0,0 c 0.01,0 0.014,0 0.019,0 0.007,0 0.014,0 0.021,0 l 0,0 c 0.15,0 0.3,0 0.448,0 31.933,0.009 57.466,17.485 64.099,13.939 7.654,-4.081 -8.564,-13.996 -7.467,-20.177 0.956,-5.432 20.955,-16.472 23.381,-18.714 2.427,-2.233 3.615,-6.05 -7.253,-5.328 z"
   id="path3106"
   inkscape:connector-curvature="0"
   style="fill:#003399" />
		<path
   d="m 342.38,123.083 c 0.038,-0.337 0.179,-1.811 2.505,-2.561 7.007,-2.261 29.173,8.161 41.251,8.152 5.867,-0.009 18.55,-4.343 6.515,-23.095 -0.44,-0.675 -0.826,-1.21 -1.061,-2.167 -1.707,-7.702 35.478,-11.229 50.702,-13.696 3.588,-0.591 8.325,-1.529 10.154,0.16 2.453,2.261 -0.83,4.756 -2.556,6.266 -3.134,2.739 -14.766,12.964 -16.388,14.512 -1.651,1.566 -3.274,2.964 -3.134,4.203 0.192,1.745 3.072,3.621 4.597,4.512 1.642,0.957 15.496,8.761 17.833,10.524 2.335,1.745 3.695,3.574 3.751,5.61 0.015,2.814 -1.866,4.446 -3.893,5.056 -6.407,1.932 -24.033,2.495 -25.346,5.778 -1.305,3.273 2.495,17.476 -3.152,19.605 -3.695,1.407 -12.176,-4.287 -20.374,-8.958 -13.312,-7.598 -28.957,-17.72 -59.06,-30.496 -1.471,-0.619 -2.503,-1.942 -2.344,-3.405 z"
   id="path3108"
   inkscape:connector-curvature="0"
   style="fill:#3399ff" />
		<path
   d="m 317.734,0.001 0,0 c 0.007,0 0.012,0 0.019,0 0.007,0 0.012,0 0.019,0 l 0,0 c 1.37,-0.028 2.913,0.563 4.048,2.72 2.237,4.268 7.589,16.041 9.671,20.656 2.092,4.653 4.719,4.521 8.189,2.298 6.847,-4.39 13.038,-8.677 19.069,-12.12 7.664,-4.362 11.022,-2.345 13.039,0.272 -6.669,9.962 -24.192,37.194 -49.237,53.591 -0.872,0.572 -2.727,1.688 -4.791,1.688 -2.063,0 -3.921,-1.116 -4.789,-1.688 C 287.92,51.021 270.402,23.79 263.728,13.827 c 2.017,-2.617 5.377,-4.634 13.039,-0.272 6.032,3.442 12.223,7.729 19.075,12.12 3.471,2.223 6.09,2.354 8.187,-2.298 2.08,-4.615 7.432,-16.388 9.671,-20.656 1.131,-2.158 2.678,-2.749 4.045,-2.72 l 0,0 c 0.01,0 0.014,0 0.019,0 0.007,0 0.014,0 0.021,0 l 0,0 h -0.051 z"
   id="path3110"
   inkscape:connector-curvature="0"
   style="fill:#3399ff" />
	</g>
</svg>