<?xml version="1.0" encoding="UTF-8" standalone="no"?>
<svg
   width="999.98401"
   height="1000"
   viewBox="0 0 999.98401 1000"
   aria-hidden="true"
   version="1.1"
   id="svg6"
   sodipodi:docname="Moderaterna 2019 - Kopie.svg"
   inkscape:version="1.2.2 (732a01da63, 2022-12-09)"
   xmlns:inkscape="http://www.inkscape.org/namespaces/inkscape"
   xmlns:sodipodi="http://sodipodi.sourceforge.net/DTD/sodipodi-0.dtd"
   xmlns="http://www.w3.org/2000/svg"
   xmlns:svg="http://www.w3.org/2000/svg">
  <defs
     id="defs10" />
  <sodipodi:namedview
     id="namedview8"
     pagecolor="#ffffff"
     bordercolor="#000000"
     borderopacity="0.25"
     inkscape:showpageshadow="2"
     inkscape:pageopacity="0.0"
     inkscape:pagecheckerboard="0"
     inkscape:deskcolor="#d1d1d1"
     showgrid="false"
     inkscape:zoom="0.1572714"
     inkscape:cx="1313.0169"
     inkscape:cy="1589.6088"
     inkscape:window-width="1920"
     inkscape:window-height="1017"
     inkscape:window-x="-8"
     inkscape:window-y="-8"
     inkscape:window-maximized="1"
     inkscape:current-layer="svg6" />
  <path
     d="M 999.98351,500.00825 A 499.99175,499.99175 0 0 1 499.99175,1000 499.99175,499.99175 0 0 1 0,500.00825 500.00825,500.00825 0 0 1 499.99175,0 500.00825,500.00825 0 0 1 999.98351,500.00825"
     fill="#93d5f6"
     id="path2"
     style="stroke-width:16.4943;fill:#213a8f;fill-opacity:1" />
  <path
     d="M 748.65984,551.17357 674.88083,381.87606 a 82.042654,82.042654 0 0 0 29.29388,-62.87627 82.191103,82.191103 0 0 0 -82.19111,-82.17461 82.191103,82.191103 0 0 0 -82.1746,82.1911 81.927194,81.927194 0 0 0 28.88152,62.49691 l -69.58946,169.66038 h -0.16494 l -73.812,-169.29751 a 81.960183,81.960183 0 0 0 29.31037,-62.87627 82.191103,82.191103 0 0 0 -82.17461,-82.17461 82.174609,82.174609 0 0 0 -82.1911,82.1911 81.993171,81.993171 0 0 0 29.09595,62.67834 l -69.49049,169.47895 c -1.12161,0 -2.22673,-0.14845 -3.29886,-0.14845 a 82.174609,82.174609 0 0 0 -82.27358,82.1911 82.191103,82.191103 0 0 0 82.17461,82.2076 82.191103,82.191103 0 0 0 82.2076,-82.2076 81.943688,81.943688 0 0 0 -26.58881,-60.43512 l 70.18325,-171.01291 72.80584,167.0048 a 81.877711,81.877711 0 0 0 -31.33917,64.45973 82.191103,82.191103 0 0 0 82.1911,82.2076 82.207597,82.207597 0 0 0 82.2076,-82.2076 81.960183,81.960183 0 0 0 -26.6218,-60.43512 l 70.3152,-171.37579 72.9543,167.35118 a 81.9107,81.9107 0 0 0 -31.33917,64.45973 82.191103,82.191103 0 0 0 82.1911,82.2076 82.207597,82.207597 0 0 0 82.22409,-82.2076 82.125126,82.125126 0 0 0 -79.04069,-82.04266"
     fill="#213a8f"
     id="path4"
     style="stroke-width:16.4943;fill:#93d5f6;fill-opacity:1" />
</svg>
