<?xml version="1.0" encoding="UTF-8" standalone="no"?>
<svg
   viewBox="0 0 999.99999 879.76398"
   height="879.76398"
   width="1000"
   xml:space="preserve"
   id="svg2"
   version="1.1"
   sodipodi:docname="socialdemokraterna_logotyp_staende_negativ_rgb.svg"
   inkscape:version="1.2.2 (732a01da63, 2022-12-09)"
   xmlns:inkscape="http://www.inkscape.org/namespaces/inkscape"
   xmlns:sodipodi="http://sodipodi.sourceforge.net/DTD/sodipodi-0.dtd"
   xmlns="http://www.w3.org/2000/svg"
   xmlns:svg="http://www.w3.org/2000/svg"
   xmlns:rdf="http://www.w3.org/1999/02/22-rdf-syntax-ns#"
   xmlns:cc="http://creativecommons.org/ns#"
   xmlns:dc="http://purl.org/dc/elements/1.1/"><sodipodi:namedview
     id="namedview234"
     pagecolor="#d8d8d8"
     bordercolor="#000000"
     borderopacity="0.25"
     inkscape:showpageshadow="2"
     inkscape:pageopacity="0"
     inkscape:pagecheckerboard="0"
     inkscape:deskcolor="#d1d1d1"
     showgrid="false"
     inkscape:zoom="0.52599713"
     inkscape:cx="506.65676"
     inkscape:cy="431.56129"
     inkscape:window-width="1920"
     inkscape:window-height="1017"
     inkscape:window-x="-8"
     inkscape:window-y="-8"
     inkscape:window-maximized="1"
     inkscape:current-layer="svg2" /><metadata
     id="metadata8"><rdf:RDF><cc:Work
         rdf:about=""><dc:format>image/svg+xml</dc:format><dc:type
           rdf:resource="http://purl.org/dc/dcmitype/StillImage" /></cc:Work></rdf:RDF></metadata><defs
     id="defs6" /><g
     transform="matrix(2.8598311,0,0,-2.8598311,0,879.76412)"
     id="g10"><g
       transform="scale(0.1)"
       id="g12"><path
         id="path14"
         style="fill:#ffffff;fill-opacity:1;fill-rule:nonzero;stroke:none"
         d="M 31.3906,65.9297 C 44.8984,45.2891 68.3359,35.75 90.9883,35.75 c 25.0197,0 56.0077,15.8789 56.0077,46.8789 0,64.7421 -138.64444,24.6331 -138.64444,134.2691 0,32.973 27.80474,78.653 95.34344,78.653 30.582,0 59.989,-6.352 81.035,-32.172 L 153.75,235.18 c -9.539,14.691 -28.199,24.621 -50.055,24.621 -42.1169,0 -54.8239,-25.43 -54.8239,-42.903 0,-71.089 138.6409,-28.597 138.6409,-129.9175 C 187.512,32.5586 143.82,0 89.7813,0 53.6445,0 19.0781,12.3008 0,38.9219 l 31.3906,27.0078" /><path
         id="path16"
         style="fill:#ffffff;fill-opacity:1;fill-rule:nonzero;stroke:none"
         d="m 316.23,35.75 c 38.141,0 61.977,27.4102 61.977,65.539 0,38.141 -23.836,65.563 -61.977,65.563 -38.128,0 -61.968,-27.422 -61.968,-65.563 0,-38.1288 23.84,-65.539 61.968,-65.539 z m 0,164.461 c 56.02,0 100.11,-44.09 100.11,-98.922 0,-54.8085 -44.09,-98.91009 -100.11,-98.91009 -56.011,0 -100.101,44.10159 -100.101,98.91009 0,54.832 44.09,98.922 100.101,98.922" /><path
         id="path18"
         style="fill:#ffffff;fill-opacity:1;fill-rule:nonzero;stroke:none"
         d="m 588.609,145.379 c -13.101,13.91 -27.007,21.062 -46.875,21.062 -38.921,0 -58.789,-31.39 -58.789,-66.7418 0,-35.3476 23.836,-63.9492 60.789,-63.9492 19.856,0 33.754,7.1484 45.676,21.0391 l 25.426,-25.418 C 596.16,10.6992 570.738,2.37891 543.328,2.37891 485.332,2.37891 444.809,42.5 444.809,100.5 c 0,57.988 39.726,99.328 98.519,99.328 27.41,0 53.629,-9.547 72.309,-29.789 l -27.028,-24.66" /><path
         id="path20"
         style="fill:#ffffff;fill-opacity:1;fill-rule:nonzero;stroke:none"
         d="m 664.445,195.461 h 35.746 V 7.12891 h -35.746 z m 17.871,93.738 c 14.301,0 26.215,-11.91 26.215,-26.219 0,-14.308 -11.914,-26.23 -26.215,-26.23 -14.296,0 -26.218,11.922 -26.218,26.23 0,14.309 11.922,26.219 26.218,26.219" /><path
         id="path22"
         style="fill:#ffffff;fill-opacity:1;fill-rule:nonzero;stroke:none"
         d="m 860.824,97.7109 c -33.761,0 -75.086,-5.9414 -75.086,-36.1523 0,-21.4375 15.903,-30.5703 40.532,-30.5703 39.718,0 53.625,29.3828 53.625,54.8125 V 97.7109 Z M 759.926,172.41 c 19.855,18.668 48.457,27.801 74.683,27.801 55.61,0 78.653,-30.172 78.653,-62.762 V 41.3008 c 0,-13.1016 0.398,-24.2305 1.586,-34.17189 H 883.07 C 882.277,16.6914 881.879,26.2109 881.879,35.75 h -0.793 C 865.199,11.5117 843.746,2.37891 815.137,2.37891 c -34.957,0 -65.149,19.85939 -65.149,56.41019 0,48.4729 46.477,65.1519 103.684,65.1519 h 26.223 v 7.95 c 0,19.468 -14.297,39.718 -44.891,39.718 -27.41,0 -40.52,-11.507 -53.633,-21.437 l -21.445,22.238" /><path
         id="path24"
         style="fill:#ffffff;fill-opacity:1;fill-rule:nonzero;stroke:none"
         d="m 972.262,307.469 h 35.758 V 7.12891 H 972.262 V 307.469" /><path
         id="path26"
         style="fill:#ffffff;fill-opacity:1;fill-rule:nonzero;stroke:none"
         d="m 1210.82,101.289 c 0,38.141 -23.84,65.563 -61.97,65.563 -38.15,0 -61.97,-27.422 -61.97,-65.563 0,-38.1288 23.82,-65.539 61.97,-65.539 38.13,0 61.97,27.4102 61.97,65.539 z m 35.76,-94.16009 h -35.76 V 34.1719 h -0.8 c -13.9,-20.2813 -40.12,-31.79299 -65.55,-31.79299 -58.39,0 -95.73,43.30079 -95.73,98.91009 0,56.41 37.73,98.922 95.73,98.922 27.02,0 52.84,-12.301 65.55,-31.781 h 0.8 v 139.039 h 35.76 V 7.12891" /><path
         id="path28"
         style="fill:#ffffff;fill-opacity:1;fill-rule:nonzero;stroke:none"
         d="m 1441.3,116.77 c -0.79,31.41 -18.26,54.839 -54.43,54.839 -35.35,0 -58.4,-29.8 -58.4,-54.839 z M 1328.47,88.1992 c 0,-32.9804 30.59,-54.8281 63.56,-54.8281 21.86,0 37.76,11.1172 51.64,28.1875 L 1470.7,40.918 c -19.86,-25.8399 -47.28,-38.53909 -83.44,-38.53909 -59.57,0 -96.92,42.91019 -96.92,98.91009 0,56.41 40.92,98.922 97.35,98.922 66.33,0 91.75,-50.84 91.75,-99.313 V 88.1992 h -150.97" /><path
         id="path30"
         style="fill:#ffffff;fill-opacity:1;fill-rule:nonzero;stroke:none"
         d="m 1519.25,195.461 h 33.36 v -29.41 h 0.8 c 3.57,11.117 26.62,34.16 60.36,34.16 27.85,0 46.9,-11.91 58.83,-34.973 12.32,23.063 36.93,34.973 59.56,34.973 58.02,0 71.52,-41.301 71.52,-83.441 V 7.12891 h -35.75 V 112.02 c 0,28.609 -5.97,54.832 -40.52,54.832 -34.56,0 -48.06,-23.442 -48.06,-56.821 V 7.12891 h -35.77 V 105.66 c 0,35.762 -5.15,61.192 -39.73,61.192 -25.81,0 -48.86,-19.481 -48.86,-61.973 V 7.12891 h -35.74 V 195.461" /><path
         id="path32"
         style="fill:#ffffff;fill-opacity:1;fill-rule:nonzero;stroke:none"
         d="m 1939.75,35.75 c 38.15,0 61.96,27.4102 61.96,65.539 0,38.141 -23.81,65.563 -61.96,65.563 -38.12,0 -61.97,-27.422 -61.97,-65.563 0,-38.1288 23.85,-65.539 61.97,-65.539 z m 0,164.461 c 56.03,0 100.11,-44.09 100.11,-98.922 0,-54.8085 -44.08,-98.91009 -100.11,-98.91009 -55.99,0 -100.1,44.10159 -100.1,98.91009 0,54.832 44.11,98.922 100.1,98.922" /><path
         id="path34"
         style="fill:#ffffff;fill-opacity:1;fill-rule:nonzero;stroke:none"
         d="m 2075.72,307.469 h 35.74 v -193.84 l 81.04,81.41 h 49.65 L 2154.37,109.641 2249.7,7.12891 h -50.84 l -87.4,97.75009 V 7.12891 h -35.74 V 307.469" /><path
         id="path36"
         style="fill:#ffffff;fill-opacity:1;fill-rule:nonzero;stroke:none"
         d="m 2283.33,195.461 h 35.74 v -29.02 h 0.8 c 9.13,19.86 32.98,33.77 56.4,33.77 5.56,0 11.13,-0.793 15.91,-2.371 l -1.6,-38.551 c -5.95,1.59 -11.92,2.781 -17.48,2.781 -34.94,0 -54.03,-19.07 -54.03,-60.371 V 7.12891 h -35.74 V 195.461" /><path
         id="path38"
         style="fill:#ffffff;fill-opacity:1;fill-rule:nonzero;stroke:none"
         d="m 2523.56,97.7109 c -33.79,0 -75.1,-5.9414 -75.1,-36.1523 0,-21.4375 15.89,-30.5703 40.5,-30.5703 39.73,0 53.64,29.3828 53.64,54.8125 V 97.7109 Z M 2422.63,172.41 c 19.86,18.668 48.47,27.801 74.69,27.801 55.6,0 78.65,-30.172 78.65,-62.762 V 41.3008 c 0,-13.1016 0.39,-24.2305 1.57,-34.17189 h -31.74 c -0.8,9.56249 -1.2,19.08199 -1.2,28.62109 h -0.79 c -15.89,-24.2383 -37.36,-33.37109 -65.96,-33.37109 -34.94,0 -65.15,19.85939 -65.15,56.41019 0,48.4729 46.47,65.1519 103.68,65.1519 h 26.22 v 7.95 c 0,19.468 -14.28,39.718 -44.89,39.718 -27.41,0 -40.5,-11.507 -53.61,-21.437 l -21.47,22.238" /><path
         id="path40"
         style="fill:#ffffff;fill-opacity:1;fill-rule:nonzero;stroke:none"
         d="m 2729.23,164.469 h -51.26 V 79.0508 c 0,-21.0625 0,-43.3008 27.04,-43.3008 8.33,0 18.26,1.1797 25.43,5.5508 V 8.73828 c -8.35,-4.77734 -25.03,-6.35937 -32.18,-6.35937 -55.23,0 -56.03,33.74999 -56.03,63.96089 v 98.1292 h -41.29 v 30.992 h 41.29 v 52.82 h 35.74 v -52.82 h 51.26 v -30.992" /><path
         id="path42"
         style="fill:#ffffff;fill-opacity:1;fill-rule:nonzero;stroke:none"
         d="m 2908.1,116.77 c -0.8,31.41 -18.26,54.839 -54.41,54.839 -35.35,0 -58.41,-29.8 -58.41,-54.839 z M 2795.28,88.1992 c 0,-32.9804 30.59,-54.8281 63.55,-54.8281 21.85,0 37.76,11.1172 51.64,28.1875 l 27.04,-20.6406 c -19.86,-25.8399 -47.29,-38.53909 -83.44,-38.53909 -59.59,0 -96.94,42.91019 -96.94,98.91009 0,56.41 40.95,98.922 97.36,98.922 66.33,0 91.77,-50.84 91.77,-99.313 V 88.1992 h -150.98" /><path
         id="path44"
         style="fill:#ffffff;fill-opacity:1;fill-rule:nonzero;stroke:none"
         d="m 2988.02,195.461 h 35.74 v -29.02 h 0.82 c 9.11,19.86 32.96,33.77 56.39,33.77 5.56,0 11.13,-0.793 15.91,-2.371 l -1.6,-38.551 c -5.96,1.59 -11.93,2.781 -17.49,2.781 -34.94,0 -54.03,-19.07 -54.03,-60.371 V 7.12891 h -35.74 V 195.461" /><path
         id="path46"
         style="fill:#ffffff;fill-opacity:1;fill-rule:nonzero;stroke:none"
         d="m 3131.91,195.461 h 35.73 v -29.02 h 0.8 c 9.13,19.86 32.99,33.77 61.98,33.77 36.56,0 68.34,-21.852 68.34,-71.891 V 7.12891 h -35.75 V 118.379 c 0,35.359 -20.28,48.473 -42.91,48.473 -29.79,0 -52.46,-19.09 -52.46,-62.774 V 7.12891 h -35.73 V 195.461" /><path
         id="path48"
         style="fill:#ffffff;fill-opacity:1;fill-rule:nonzero;stroke:none"
         d="m 3442.71,97.7109 c -33.78,0 -75.08,-5.9414 -75.08,-36.1523 0,-21.4375 15.88,-30.5703 40.5,-30.5703 39.73,0 53.64,29.3828 53.64,54.8125 V 97.7109 Z M 3341.8,172.41 c 19.86,18.668 48.47,27.801 74.69,27.801 55.61,0 78.65,-30.172 78.65,-62.762 V 41.3008 c 0,-13.1016 0.39,-24.2305 1.57,-34.17189 h -31.76 c -0.78,9.56249 -1.19,19.08199 -1.19,28.62109 h -0.8 c -15.87,-24.2383 -37.34,-33.37109 -65.94,-33.37109 -34.95,0 -65.15,19.85939 -65.15,56.41019 0,48.4729 46.47,65.1519 103.68,65.1519 h 26.22 v 7.95 c 0,19.468 -14.29,39.718 -44.89,39.718 -27.42,0 -40.5,-11.507 -53.61,-21.437 l -21.47,22.238" /><path
         id="path50"
         style="fill:#ffffff;fill-opacity:1;fill-rule:nonzero;stroke:none"
         d="m 2932.62,1844.96 c -21.28,268.59 -101.42,494.99 -173.78,633.65 -49.34,94.94 -95.15,168.98 -138.63,213.08 -15.44,16.49 -47.37,46.12 -79.49,49.41 -32.72,3.35 -75.46,-3.77 -164.52,-33.2 -66.93,-22.12 -116.85,-40.23 -136.09,-47.3 -9.51,12.92 -28.41,38.46 -43.02,57.58 -49.17,64.48 -108.57,143.61 -179.55,199.67 -49.68,39.26 -94.45,69.89 -159.69,96.05 -41.95,18.17 -83.86,31.15 -121.79,39.1 -69.53,14.59 -130.66,21.64 -146.55,23.28 -1.51,-11.17 -6.22,-45.41 -12.12,-87.9 -7.59,-54.26 -17.31,-134.18 -17.83,-138.57 -60.47,13.62 -142.87,15.93 -210.18,2.83 -119.15,-23.24 -220.2,-68.84 -300.01,-108.67 -99.132,-49.52 -176.257,-104.03 -219.651,-137.53 -80.703,-61.5 -132.832,-119.41 -163.086,-166.6 -18.692,-29.21 -29.039,-55.41 -34.66,-74.26 -4.168,-14.05 -5.766,-23.87 -6.285,-27.95 l 135.203,-105.18 c -17.93,0.58 -39.653,-3.38 -55.926,-8.94 -45.527,-15.58 -58.676,-23.21 -76.602,-33.61 -32.82,-18.96 -58.09,-39.52 -83.375,-63.58 -41.097,-42.46 -97.086,-134.46 -96.925,-214.25 0,-11.87 1.14,-23.67 3.539,-35.15 15.261,-72.4 56.64,-127.03 89.964,-180.34 21.633,-34.53 67.399,-95.6 107.672,-147.87 38.078,-49.28 74.395,-90.75 78.051,-95.29 l -154.266,-85.09 2.661,-10.87 h 0.043 c 1.972,-9.26 5.586,-25.35 11.203,-46.46 9.066,-34.05 23.238,-80.76 43.566,-131.08 C 683.57,1048.1 825.93,799.551 900.543,739.109 1030.97,633.07 1291.62,498.852 1631.23,498.852 c 2.51,0 5.07,0 7.63,0.117 153.86,0.75 316.36,79.601 412.88,182.222 42.49,45.149 77.48,96.848 101.8,137.207 24.33,40.43 37.86,69.25 37.92,69.332 l 0.74,1.54 1.7,0.601 c 0.54,0.219 0.94,0.219 1.34,0.219 5.76,-0.051 276.88,1.16 474.36,180.73 50.4,46.03 267.34,227.1 267.54,662.88 0,35.35 -1.42,72.43 -4.52,111.26" /><path
         id="path52"
         style="fill:#ec1934;fill-opacity:1;fill-rule:nonzero;stroke:none"
         d="m 1684.6,2953.26 c -29.17,-139.79 -31.53,-417.8 -60.1,-567.13 189.55,87.26 305.57,158.42 499.96,230.17 -119.54,160.45 -234.15,306.59 -439.86,336.96" /><path
         id="path54"
         style="fill:#ec1934;fill-opacity:1;fill-rule:nonzero;stroke:none"
         d="m 1308.79,1103.13 c -120.33,28.81 -176.95,86.53 -236.25,146.56 -15.41,15.62 50.05,71.94 74.3,59.57 83.88,-42.9 166.1,-92.51 207.56,-97.63 537.76,-66.22 695.96,149.26 746.79,273.56 -257.08,331.13 -498.6,237.53 -498.6,237.53 -10.64,-89.55 -36.24,-170.53 -36.29,-263.47 0.61,-9.45 -264.96,-40.55 -272.88,-29.49 -49.38,45.92 -106.97,108.89 -151.48,158.31 C 1006.43,1470.45 858.234,1406.02 702.102,1312.27 736.57,1164.03 903.766,853.078 1002.96,794.289 1573.29,456.02 2158.9,533.32 2146.33,1328.8 1990.25,1022.55 1474.23,1063.83 1308.79,1103.13" /><path
         id="path56"
         style="fill:#ec1934;fill-opacity:1;fill-rule:nonzero;stroke:none"
         d="m 2526.69,2608.08 c -35.1,26.39 -690.78,-274.51 -907.28,-335.69 -20.2,-142.74 -30.3,-293.53 -33.39,-434.82 186.65,44.56 375.44,-26.67 565.37,-212.72 31.55,82.5 31.55,247.46 27.81,341.25 -1.1,31.89 71.13,45.27 77,37.67 84.03,-106.87 23.92,-383.7 -15.92,-522.04 13.37,-203.01 15.61,-309.79 -24.98,-492.179 1000.96,157.489 515.57,1465.309 311.39,1618.529 m -177.8,-421.46 c -74.62,-20.07 -184.16,134.11 -124.59,201.31 78.85,88.95 288.78,-157.36 124.59,-201.31" /><path
         id="path58"
         style="fill:#ec1934;fill-opacity:1;fill-rule:nonzero;stroke:none"
         d="m 1095.3,1695.45 c -50.38,76.13 -75.66,185.26 -87.16,281.64 -87.808,46.93 -222.152,192.44 -309.761,134.76 -196.277,-129.14 -153.582,-239.81 -142.367,-257.86 102.406,-165.15 151.902,-235.91 241.207,-326.11 92.64,40.04 195.996,108.62 298.081,167.57" /><path
         id="path60"
         style="fill:#ec1934;fill-opacity:1;fill-rule:nonzero;stroke:none"
         d="m 1138.99,2058.44 c -117.78,-167.12 204.99,-522.97 204.99,-522.97 l 120.93,11.09 c -9.64,264.88 50.52,488.23 -1.72,536.95 -46.69,42.74 -225.87,114.48 -324.2,-25.07 m 162.56,-282.5 c -105.94,45.41 -112.38,276.75 -21.32,247.43 138.69,-44.65 171.1,-311.82 21.32,-247.43" /><path
         id="path62"
         style="fill:#ec1934;fill-opacity:1;fill-rule:nonzero;stroke:none"
         d="m 1488.84,2147.7 c -4.63,8.15 47.14,414.62 49.67,595.51 -260.03,60.51 -738.233,-238.49 -786.201,-371.03 110.175,-94.12 215.269,-172.95 323.321,-265.08 78.67,222.29 362.26,136.73 413.21,40.6" /></g></g></svg>
