<?xml version="1.0" encoding="UTF-8" standalone="no"?>
<svg
   xmlns:svg="http://www.w3.org/2000/svg"
   xmlns="http://www.w3.org/2000/svg"
   version="1.1"
   width="74"
   height="80"
   id="svg3219">
  <defs
     id="defs12" />
  <path
     d="m 23.980665,56.75327 c 0.299,-2.177 0.804,-4.095 0.804,-4.095 -0.841,1.009 -1.124,1.468 -1.679,2.188 -1.677,2.172 -3.045,1.729 -2.318,6.492 0.243,1.588 0.341,3.132 -0.286,3.591 -0.26,0.19 -0.851,-0.206 -1.721,-0.946 -2.188,-1.865 -5.675,-5.828 -6.639,-7.482 -1.288,-2.207 -1.952,-4.836 -1.814,-6.06 0.321,-1.425 1.143,-2.921 5.728,-4.552 0,0 -14.8170002,-1.906 -15.96400023,-15.32 -0.511,-5.973 1.02000003,-8.778 6.98900003,-7.716 6.3840002,1.137 14.2800002,9.994 14.2800002,9.994 -1.157,-2.294 -4.075,-8.936 -4.044,-14.656 0,0 -0.099,-4.812 0.915,-10.0059997 1.099,-5.624 8.567,-10.59 11.354,-6.931 2.219,2.913 2.922,12.2559997 2.771,18.9799997 0.039,4.974 0.1,9.077 0.227,9.778 0,0 6.351,-14.705 14.646,-19.824 2.56,-1.5799997 6.771,-2.9099997 11.203,-0.9809997 4.084,1.7779997 2.449,8.6539997 1.511,11.7829997 -2.346,8.29 -14.065,15.185 -14.065,15.185 6.726,-0.157 12.659,-1.411 21.931,3.338 2.99,1.531 7.151,5.355 5.429,7.957 -2.705,4.083 -6.098,4.958 -11.41,4.446 -2.651,-0.256 -4.019,-0.29 -7.941,-0.633 0,0 2.933,1.846 5.445,4.571 2.252,2.441 4.132,5.678 3.838,7.436 -0.345,2.072 -2.939,4.181 -6.39,4.912 -8.095,1.713 -18.7,-10.996 -19.951,-12.873 0,0 0.853,6.616 1.444,9.128 0.208,0.883 0.31,2.159 0.964,3.148 1.232,1.862 2.273,3.761 3.183,6.667 1.414,4.513 -3.122,6.703 -7.096,4.776 -4.261,-2.066 -6.531,-4.2 -9.25,-8.359 -1.259,-1.924 -2.351,-5.265 -2.392,-8.9 -0.015,-1.273 -0.012,-3.089 0.298,-5.036 z"
     id="path23"
     style="fill:#2a8ebf" />
  <path
     d="m 20.204665,64.94627 c -0.134,-0.065 -0.315,-0.079 -0.526,-0.235 -1.521,-1.123 -4.869,-4.269 -7.136,-7.582 -1.046,-1.529 -1.669,-3.413 -1.887,-4.231 -0.086,-0.327 -0.14,-0.72 -0.202,-1.002 -0.242,-1.138 -0.247,-1.876 0.397,-2.744 0,0 -0.8670002,1.257 1.534,3.328 0.839,0.723 1.797,1.659 2.232,2.502 0.541,1.046 1.147,1.884 1.669,2.919 0.185,0.366 0.313,0.598 0.553,1.015 0.418,0.73 0.844,1.538 1.225,2.222 0.744,1.336 2.269,3.827 2.761,3.317 0.001,0 -0.204,0.69 -0.62,0.491 z"
     id="path25"
     style="fill:#227199" />
  <path
     d="m 37.538665,37.43427 c -4.974,-7.909 -16.171,-0.71 -9.87,8.743 5.549,8.327 15.652,0.447 9.87,-8.743 z"
     id="path27"
     style="fill:#f5ec21" />
  <path
     d="m 34.309665,36.69027 c 0,0 3.918,2.178 3.367,6.606 -0.685,5.496 -2.061,0.761 -2.292,-1.085 -0.382,-3.061 -1.725,-3.755 -2.814,-4.615 -0.412,-0.327 -0.809,-1.833 1.739,-0.906 z"
     id="path29"
     style="fill:#ffffff" />
</svg>
